<svg width="112" height="26" viewBox="0 0 112 26" fill="none" xmlns="http://www.w3.org/2000/svg">
<path d="M37.122 6.526V16.66H41.982L41.676 19H34.17V6.526H37.122Z" fill="white"/>
<path d="M50.9685 19L50.3205 16.318H46.6845L46.0545 19H42.9945L46.7565 6.526H50.3385L54.1005 19H50.9685ZM47.1885 14.176H49.8165L48.5025 8.668L47.1885 14.176Z" fill="white"/>
<path d="M63.6512 6.526L63.3632 8.794H60.2852V19H57.3332V8.794H54.1112V6.526H63.6512Z" fill="white"/>
<path d="M70.2471 6.22C72.0231 6.22 73.4031 6.79 74.3871 7.93C75.3831 9.07 75.8811 10.678 75.8811 12.754C75.8811 14.11 75.6531 15.28 75.1971 16.264C74.7531 17.248 74.1051 18.004 73.2531 18.532C72.4131 19.048 71.4111 19.306 70.2471 19.306C69.0831 19.306 68.0811 19.048 67.2411 18.532C66.4011 18.016 65.7531 17.272 65.2971 16.3C64.8531 15.316 64.6311 14.134 64.6311 12.754C64.6311 11.41 64.8531 10.246 65.2971 9.262C65.7531 8.278 66.4011 7.528 67.2411 7.012C68.0811 6.484 69.0831 6.22 70.2471 6.22ZM70.2471 8.38C69.3951 8.38 68.7591 8.728 68.3391 9.424C67.9311 10.108 67.7271 11.218 67.7271 12.754C67.7271 14.29 67.9371 15.406 68.3571 16.102C68.7771 16.798 69.4071 17.146 70.2471 17.146C71.1111 17.146 71.7471 16.804 72.1551 16.12C72.5751 15.424 72.7851 14.302 72.7851 12.754C72.7851 11.206 72.5751 10.09 72.1551 9.406C71.7351 8.722 71.0991 8.38 70.2471 8.38Z" fill="white"/>
<path d="M81.6044 6.526V19H78.6524V6.526H81.6044ZM88.7684 6.526L84.7904 12.124L89.0924 19H85.6724L81.6944 12.34L85.6544 6.526H88.7684Z" fill="white"/>
<path d="M98.693 6.526L98.387 8.632H93.995V11.62H97.829V13.69H93.995V16.876H98.693V19H91.043V6.526H98.693Z" fill="white"/>
<path d="M111.13 19H107.368L103.768 9.334C103.888 10.282 103.978 11.122 104.038 11.854C104.11 12.574 104.146 13.432 104.146 14.428V19H101.518V6.526H105.19L108.88 16.21C108.616 14.566 108.484 13.018 108.484 11.566V6.526H111.13V19Z" fill="white"/>
<path d="M17.1435 13.5873H14.9529L16.7468 8.52014L17.1435 13.5873Z" fill="white"/>
<path fill-rule="evenodd" clip-rule="evenodd" d="M13 26C20.1797 26 26 20.1797 26 13C26 5.8203 20.1797 0 13 0C5.8203 0 0 5.8203 0 13C0 20.1797 5.8203 26 13 26ZM8.10911 15.7758L12.1626 6.5H9.02324L3.90028 18.2H13.3315L14.1767 15.8095H17.2987L17.4885 18.2H20.8003L19.0064 6.5H15.2116L11.1227 15.7758H8.10911Z" fill="white"/>
</svg>
